<svg width="108" height="103" viewBox="0 0 108 103" fill="none" xmlns="http://www.w3.org/2000/svg">
<path d="M38.8864 0C35.2829 0 31.9874 1.93743 30.3693 5.00719L26.6232 12.114H15.887C7.11284 12.114 0 18.8955 0 27.2611V75.7353C0 84.1007 7.11284 90.8824 15.887 90.8824H48.2646C47.2355 88.9629 46.3959 86.9356 45.7692 84.8235H15.887C10.6225 84.8235 6.35478 80.7544 6.35478 75.7353V27.2611C6.35478 22.2418 10.6225 18.1728 15.887 18.1728H28.5825C29.7836 18.1728 30.8821 17.527 31.4215 16.5037L36.0474 7.72791C36.5868 6.70463 37.6852 6.05882 38.8864 6.05882H62.8072C64.0108 6.05882 65.1108 6.70724 65.6491 7.73366L70.2442 16.4979C70.7825 17.5244 71.8825 18.1728 73.0861 18.1728H85.7893C91.0542 18.1728 95.3215 22.2418 95.3215 27.2611V46.0599C97.5958 47.1709 99.7253 48.5124 101.676 50.0519V27.2611C101.676 18.8956 94.564 12.114 85.7893 12.114H75.0503L71.3334 5.02458C69.7187 1.94525 66.418 0 62.8072 0H38.8864Z" fill="#212121"/>
<path d="M50.8078 24.2353C62.7304 24.2353 72.7353 32.0612 75.4812 42.6192C73.3391 42.8473 71.2553 43.2601 69.2478 43.8403C67.1006 36.0444 59.6585 30.2941 50.8078 30.2941C40.2788 30.2941 31.7435 38.432 31.7435 48.4704C31.7435 56.9091 37.7747 64.0046 45.9515 66.0519C45.3429 67.9659 44.91 69.9526 44.6707 71.995C33.597 69.3776 25.3887 59.838 25.3887 48.4704C25.3887 35.0858 36.7692 24.2353 50.8078 24.2353Z" fill="#212121"/>
<path d="M108 75.7353C108 90.7933 95.1969 103 79.4034 103C63.6105 103 50.8071 90.7933 50.8071 75.7353C50.8071 60.6773 63.6105 48.4706 79.4034 48.4706C95.1969 48.4706 108 60.6773 108 75.7353ZM82.5808 63.6176C82.5808 61.9448 81.1586 60.5882 79.4034 60.5882C77.6488 60.5882 76.226 61.9448 76.226 63.6176V72.7059H66.6938C64.9393 72.7059 63.5164 74.0624 63.5164 75.7353C63.5164 77.4081 64.9393 78.7647 66.6938 78.7647H76.226V87.8529C76.226 89.5258 77.6488 90.8824 79.4034 90.8824C81.1586 90.8824 82.5808 89.5258 82.5808 87.8529V78.7647H92.113C93.8681 78.7647 95.2903 77.4081 95.2903 75.7353C95.2903 74.0624 93.8681 72.7059 92.113 72.7059H82.5808V63.6176Z" fill="#212121"/>
</svg>
