<svg width="248" height="137" viewBox="0 0 248 137" fill="none" xmlns="http://www.w3.org/2000/svg">
<mask id="mask0_28_60" style="mask-type:luminance" maskUnits="userSpaceOnUse" x="0" y="0" width="248" height="137">
<path d="M0.800049 0.806274H247.2V136.406H0.800049V0.806274Z" fill="white"/>
</mask>
<g mask="url(#mask0_28_60)">
<path d="M235.515 87.1375C236.17 87.6438 236.811 88.0625 237.363 88.5688C238.287 89.4063 239.186 90.275 240.045 91.1875C240.989 92.1875 241.893 93.225 242.798 94.2563C243.068 94.5688 243.299 94.9875 243.1 95.3688C242.914 95.7313 242.484 95.875 242.028 95.8563C241.932 95.85 241.836 95.85 241.733 95.8563C241.419 95.9 241.002 95.6938 240.86 96.0813C240.809 96.2188 241.143 96.4875 241.303 96.6875C242.124 97.6875 242.952 98.675 243.774 99.6813C244.069 100.044 244.094 100.463 243.754 100.794C243.292 101.25 243.209 101.8 243.125 102.394C243.004 103.363 242.76 104.319 242.561 105.281C242.542 105.344 242.548 105.406 242.542 105.463C242.477 106.444 242.362 107.419 242.355 108.4C242.33 112.031 242.355 115.675 242.336 119.306C242.336 119.7 242.509 120.125 242.163 120.506C242.086 120.588 242.24 120.919 242.355 121.088C243.267 122.431 243.658 124 244.409 125.419C244.961 126.456 245.493 127.513 246.032 128.556C246.27 129.019 246.469 129.494 246.738 129.925C247.059 130.431 246.911 130.981 246.911 131.506C246.911 131.819 246.193 132.131 245.814 132.05C245.512 131.988 245.204 131.906 244.89 131.875C243.844 131.762 242.792 131.769 241.765 131.488C241.643 131.456 241.502 131.481 241.374 131.481C240.276 131.494 239.211 131.312 238.146 131.1C237.389 130.956 236.606 130.981 235.836 130.887C235.117 130.794 234.412 130.644 233.693 130.538C233.064 130.45 232.429 130.387 231.8 130.306C230.215 130.113 228.63 129.975 227.065 129.7C225.621 129.45 224.177 129.275 222.727 129.113C221.488 128.975 220.244 128.838 219.005 128.719C217.433 128.562 215.855 128.45 214.289 128.319C213.352 128.238 212.396 128.306 211.485 128.131C210.24 127.888 208.995 128.106 207.776 127.956C204.882 127.581 201.975 127.844 199.081 127.787C196.155 127.738 193.229 127.638 190.31 127.825C188.404 127.944 186.492 127.775 184.612 128.013C182.802 128.238 180.993 127.975 179.209 128.194C177.406 128.419 175.59 128.188 173.806 128.406C172.561 128.556 171.317 128.394 170.097 128.588C168.917 128.775 167.73 128.6 166.594 128.794C165.413 128.994 164.233 128.794 163.09 128.975C162.051 129.144 161.011 129.05 159.978 129.163C158.336 129.338 156.706 129.494 155.057 129.55C153.677 129.594 152.304 129.744 150.931 129.938C149.628 130.119 148.319 130.225 147.01 130.338C145.599 130.45 144.187 130.581 142.788 130.738C141.126 130.925 139.451 131.056 137.822 131.475C136.352 131.856 134.902 132.275 133.651 133.15C132.31 134.075 130.763 134.506 129.236 134.969C127.568 135.469 125.842 135.456 124.122 135.344C122.903 135.262 121.696 134.919 120.477 134.8C119.123 134.669 117.872 134.244 116.595 133.838C115.434 133.475 114.388 132.906 113.355 132.325C112.784 132.012 112.219 131.781 111.629 131.7C110.095 131.488 108.594 131.169 107.079 130.906C105.847 130.7 104.596 130.669 103.358 130.488C101.824 130.275 100.278 130.238 98.744 130.062C97.4607 129.919 96.1902 130.025 94.9325 129.913C90.9093 129.556 86.8668 129.606 82.8499 129.775C78.8844 129.938 74.9189 129.744 70.9663 129.956C69.4968 130.038 68.0146 129.938 66.5644 130.144C65.2875 130.331 64.0106 130.144 62.7529 130.338C61.5402 130.525 60.3274 130.344 59.1532 130.531C58.0046 130.713 56.856 130.538 55.7459 130.725C54.6615 130.9 53.5835 130.738 52.5376 130.919C51.5238 131.088 50.5099 130.931 49.5282 131.113C48.5785 131.281 47.6353 131.169 46.7177 131.288C45.1777 131.494 43.6313 131.538 42.0913 131.669C40.8079 131.769 39.5374 131.913 38.2605 132.05C37.1183 132.175 35.9698 132.275 34.8404 132.444C33.6662 132.631 32.4983 132.75 31.3177 132.85C29.9638 132.956 28.6291 133.244 27.2752 133.406C26.3448 133.519 25.3887 133.456 24.4711 133.631C23.5984 133.8 22.7065 133.7 21.8338 133.969C21.1729 134.169 20.435 134.131 19.7356 134.188C18.9014 134.256 18.0416 134.225 17.2267 134.406C16.1102 134.637 14.968 134.606 13.8708 134.95C13.3318 135.119 12.7286 135.081 12.1639 135.169C10.9191 135.356 9.67426 135.569 8.41659 135.75C7.74926 135.844 7.07551 135.863 6.40817 135.956C5.68951 136.062 4.99009 136.262 4.27784 136.325C3.52067 136.394 2.74426 136.406 1.98709 136.319C1.21067 136.231 0.979672 135.531 1.38392 134.725C1.65342 134.188 1.93575 133.656 2.22451 133.125C3.08434 131.55 3.92492 129.975 4.81684 128.431C5.49701 127.244 6.1515 126.044 6.44667 124.706C6.53651 124.281 6.69692 123.8 6.56859 123.412C6.27984 122.525 6.51084 121.631 6.38892 120.763C6.14509 118.912 6.37609 117.038 6.15792 115.2C5.90126 113.006 6.10659 110.838 5.99109 108.65C5.93334 107.575 6.01034 106.5 5.84351 105.412C5.68951 104.4 5.92051 103.331 6.01034 102.294C6.02959 102.131 6.21567 101.994 6.33117 101.838C7.19742 100.663 8.07009 99.5 8.92992 98.3125C8.98126 98.25 8.92351 98.0063 8.89142 98C8.54492 97.95 8.33317 97.775 8.39092 97.425C8.44226 97.1 8.46792 96.7188 8.66042 96.4688C9.41759 95.4688 10.2518 94.5125 11.041 93.5313C12.1639 92.1375 13.1906 90.6625 14.3905 89.3438C15.6289 87.9813 16.5016 86.3563 17.8619 85.1063C18.0352 84.9438 18.0352 84.7875 17.7272 84.7313C17.0534 84.6063 16.3733 84.4625 15.6995 84.3438C15.0899 84.2375 14.4803 84.1438 13.9285 83.8188C13.2676 83.425 13.2034 83.0813 13.7232 82.5375C14.6857 81.5313 15.6161 80.5 16.6235 79.525C17.9261 78.2625 19.3121 77.0625 20.6147 75.8C21.7761 74.6625 22.8605 73.4563 24.0155 72.3125C24.8625 71.475 25.7865 70.7 26.6656 69.8875C26.7939 69.775 26.8388 69.5813 26.9223 69.4188C26.7683 69.4 26.6207 69.3563 26.4603 69.3438C24.9844 69.2125 23.5086 69.1375 22.0392 68.9375C20.0757 68.675 18.1186 68.3438 16.1679 67.9625C15.1669 67.7688 14.1659 67.6313 13.1457 67.5688C12.6708 67.5375 12.1447 67.3438 11.7853 67.0625C11.3554 66.7313 11.503 66.1375 11.6442 65.7188C12.0292 64.55 12.5168 63.4125 12.9853 62.2688C13.6526 60.6375 14.5317 59.1063 15.584 57.675C16.123 56.9438 16.6748 56.2188 17.278 55.5313C18.4073 54.2625 19.5623 53.0125 20.7238 51.7625C21.6927 50.725 22.6937 49.7 23.6818 48.6813C25.0165 47.3 26.3383 45.9188 27.7051 44.5625C33.0823 39.2313 38.4594 33.9125 43.8558 28.6063C45.1713 27.3063 46.5188 26.0188 47.9368 24.8313C49.5988 23.4188 51.3569 22.1063 53.083 20.7563C54.7 19.4875 56.2978 18.1938 57.9597 16.975C59.2879 16.0125 60.7188 15.1563 62.0792 14.2313C63.2213 13.45 64.3378 13.6375 65.4928 14.1813C66.9815 14.8938 68.4958 15.5625 69.9973 16.25C71.6336 17.0125 73.3019 17.7188 74.8997 18.5563C75.4258 18.8375 75.5221 18.6438 75.7403 18.3C76.9466 16.4125 78.1658 14.5375 79.3978 12.6688C80.5528 10.9125 81.4896 9.04375 82.3815 7.1625C83.0809 5.68125 83.8317 4.225 83.9857 2.55625C84.0242 2.2125 84.1974 1.8625 84.3322 1.53125C84.6081 0.918754 85.1728 0.793753 85.6861 1.225C86.7192 2.0875 87.7715 2.93125 88.7661 3.85C90.0302 5.025 91.3392 6.20625 92.4749 7.5C94.124 9.36875 95.6319 11.3438 97.2168 13.2625C98.1665 14.4188 99.1868 15.5063 100.092 16.6813C101.439 18.4438 102.831 20.1563 104.16 21.9375C105.642 23.925 107.105 25.9313 108.491 27.9875C109.518 29.5063 110.493 31.0625 111.449 32.625C112.598 34.4938 113.759 36.35 114.824 38.2688C115.838 40.0875 116.736 41.9688 117.667 43.8313C119.111 46.725 120.304 49.7 121.51 52.7C122.563 55.3313 123.384 58.0375 124.411 60.675C124.744 61.525 124.834 62.45 125.065 63.3313C125.11 63.5375 125.251 63.7125 125.354 63.9C125.45 63.7438 125.566 63.6 125.656 63.45C125.887 63.0188 126.085 62.575 126.349 62.1688C127.375 60.5625 128.363 58.9375 129.461 57.3938C130.616 55.7625 131.886 54.2125 133.112 52.6313C134.382 50.9875 135.768 49.4375 137.27 47.9875C139.419 45.9063 141.524 43.7938 143.693 41.7313C145.457 40.0625 147.273 38.4438 149.096 36.8438C150.514 35.5938 151.945 34.3688 153.433 33.1938C155.089 31.8875 156.815 30.6688 158.496 29.3938C160.999 27.5125 163.764 26.0125 166.414 24.3375C169.956 22.1 173.768 20.3688 177.521 18.5313C179.357 17.6313 181.256 16.85 183.117 15.9875C183.9 15.625 184.663 15.2125 185.401 14.7875C185.748 14.5875 186.004 14.625 186.37 14.7875C187.525 15.2938 188.552 15.9438 189.54 16.7188C191.176 18 192.864 19.2188 194.538 20.45C195.578 21.2125 196.637 21.9438 197.657 22.725C198.992 23.7438 200.32 24.7813 201.622 25.825C202.277 26.35 202.893 26.9125 203.522 27.475C204.625 28.4813 205.729 29.4938 206.82 30.5063C208.469 32.0375 210.125 33.5563 211.735 35.125C212.781 36.1438 213.788 37.2063 214.77 38.2813C215.944 39.5813 217.093 40.9 218.222 42.2375C219.628 43.9063 221.026 45.5688 222.38 47.2688C224.414 49.8125 226.583 52.2625 228.457 54.9375C229.843 56.9188 231.351 58.8063 232.653 60.8375C233.635 62.3625 234.386 64.025 235.214 65.6375C235.509 66.2188 234.874 67.15 234.174 67.2063C233.205 67.2875 232.224 67.2938 231.267 67.4188C230.112 67.5625 228.977 67.8063 227.822 67.9875C227.251 68.075 226.673 68.1063 226.115 68.1875C225.095 68.3375 224.081 68.5813 223.067 68.7125C222.117 68.8313 221.174 68.9813 220.244 69.1625C218.806 69.4438 217.375 69.7625 215.944 70.0813C214.462 70.4125 212.98 70.75 211.504 71.1125C209.695 71.5563 207.885 71.9688 206.108 72.5063C203.791 73.2125 201.501 74.0063 199.216 74.8188C197.368 75.475 195.565 76.225 193.749 76.9688C187.949 79.325 182.36 82.1188 176.796 84.9438C174.377 86.1688 172.029 87.5125 169.655 88.8063C168.217 89.5875 166.774 90.3438 165.375 91.1688C163.617 92.2125 161.846 93.2375 160.158 94.3938C158.214 95.7188 156.34 97.1625 154.454 98.5813C152.888 99.7563 151.329 100.944 149.795 102.163C148.788 102.963 147.851 103.819 146.85 104.625C145.945 105.356 144.995 106.044 144.071 106.769C143.545 107.188 143.032 107.631 142.531 108.075C141.543 108.956 140.561 109.863 139.58 110.756C137.539 112.613 135.473 114.444 133.477 116.344C132.014 117.738 130.648 119.219 129.236 120.656C129.172 120.725 129.153 120.838 129.114 120.931C129.23 120.9 129.352 120.881 129.448 120.825C130.802 120.025 132.271 119.412 133.522 118.425C134.812 117.419 136.153 116.494 137.475 115.531C138.842 114.525 140.202 113.506 141.575 112.5C142.634 111.719 143.699 110.931 144.771 110.169C145.971 109.306 147.164 108.444 148.377 107.619C150.462 106.206 152.554 104.806 154.678 103.425C155.551 102.856 156.5 102.394 157.405 101.875C158.291 101.363 159.106 100.694 160.055 100.356C161.339 99.9 162.5 99.2375 163.726 98.6625C166.684 97.25 169.7 95.9938 172.78 94.8438C176.168 93.5813 179.575 92.3625 183.046 91.3063C185.491 90.5688 187.936 89.7938 190.425 89.1875C191.991 88.8125 193.531 88.35 195.116 88.0375C196.213 87.8188 197.285 87.4938 198.382 87.275C199.89 86.975 201.417 86.7438 202.931 86.4875C204.452 86.225 205.967 85.9313 207.494 85.7188C208.796 85.5313 210.112 85.4688 211.414 85.3063C212.762 85.1375 214.103 84.9063 215.45 84.7375C216.349 84.6313 217.266 84.675 218.158 84.5125C219.134 84.3438 220.147 84.5063 221.091 84.15C221.245 84.0938 221.424 84.15 221.591 84.1438C222.727 84.075 223.863 84.0188 224.992 83.95C225.627 83.9063 226.269 83.8188 226.904 83.7563C227.539 83.6875 228.187 83.625 228.823 83.5625C228.887 83.5563 228.983 83.5875 229.015 83.5563C229.593 82.8875 230.363 83.225 231.056 83.1813C231.877 83.1375 232.718 83.2 233.545 83.1688C234.784 83.125 236.022 83.0438 237.248 82.975C237.338 82.9688 237.421 82.925 237.511 82.8938C237.479 82.7813 237.479 82.6375 237.402 82.5625C235.862 81.1125 234.328 79.65 232.763 78.2313C231.96 77.5063 231.107 76.8313 230.247 76.1625C229.15 75.3188 228.04 74.4875 226.917 73.6813C225.775 72.8625 224.613 72.0625 223.452 71.275C222.868 70.8688 222.246 70.5 221.662 70.1C221.399 69.9188 221.206 69.6313 221.476 69.3813C221.642 69.2125 222.027 69.1063 222.258 69.175C222.695 69.2938 223.125 69.5125 223.49 69.7625C225.512 71.1188 227.533 72.4813 229.522 73.8938C231.165 75.05 232.743 76.2813 234.206 77.6688C235.502 78.9 236.837 80.0938 238.133 81.325C238.48 81.6438 238.775 82.0313 239.044 82.4125C239.327 82.8063 239.077 83.4625 238.672 83.7563C238.172 84.1188 237.575 84.2313 237.017 84.3C235.862 84.4563 234.681 84.4625 233.513 84.5188C233.282 84.5375 233.045 84.5063 232.827 84.55C232.653 84.5938 232.512 84.7188 232.358 84.8188C232.48 84.9125 232.602 85.0125 232.737 85.1063C233.661 85.7938 234.566 86.4375 235.515 87.1375ZM208.751 70.3375C208.848 70.3375 208.944 70.3625 209.047 70.3375C210.58 69.9563 212.094 69.5438 213.641 69.1813C214.943 68.875 216.259 68.6188 217.574 68.35C218.858 68.0938 220.154 67.85 221.45 67.6188C222.348 67.4563 223.253 67.3313 224.151 67.175C225.178 67.0063 226.192 66.7875 227.212 66.65C228.046 66.5375 228.893 66.5688 229.721 66.4375C230.889 66.2313 232.05 66.0563 233.25 66.0563C233.885 66.0563 233.924 66.0063 233.61 65.4188C232.852 64 232.121 62.575 231.28 61.2063C230.504 59.95 229.631 58.75 228.746 57.5625C227.725 56.175 226.66 54.8313 225.595 53.4813C224.472 52.0438 223.343 50.6188 222.188 49.2125C221.488 48.35 220.725 47.5375 220.019 46.6813C219.018 45.475 218.049 44.2313 217.042 43.0188C216.56 42.4313 216.002 41.8813 215.502 41.3063C214.347 39.9938 213.269 38.6 212.03 37.3688C209.81 35.15 207.513 33.0188 205.209 30.8813C203.965 29.725 202.662 28.6125 201.359 27.5125C200.095 26.4375 198.825 25.3625 197.516 24.3438C196.303 23.4125 195.02 22.5563 193.781 21.65C192.633 20.8125 191.503 19.9563 190.374 19.1063C189.213 18.2313 188.077 17.3375 186.89 16.5C186.46 16.1938 185.991 16.1 185.395 16.3875C182.552 17.75 179.645 18.9875 176.809 20.3625C174.544 21.4438 172.318 22.625 170.104 23.8188C168.237 24.8375 166.363 25.8688 164.598 27.0438C161.749 28.925 158.791 30.65 156.192 32.8625C154.839 34.0188 153.401 35.0563 152.028 36.1813C150.835 37.1625 149.673 38.1813 148.525 39.2125C146.548 40.9875 144.565 42.7625 142.634 44.5875C141.434 45.725 140.369 47.0063 139.163 48.1375C136.981 50.1938 134.998 52.4125 133.189 54.7813C132.335 55.8938 131.488 57.0063 130.699 58.1563C129.499 59.8688 128.312 61.5938 127.208 63.3688C126.432 64.6063 125.784 65.925 125.707 67.425C125.656 68.6 125.572 69.775 125.54 70.9438C125.341 76.6625 125.726 82.375 125.322 88.0938C125.238 89.2938 125.322 90.5 125.469 91.7188C125.681 93.4563 125.399 95.2313 125.675 96.9938C125.88 98.3063 125.656 99.6563 125.861 101C126.079 102.381 126.015 103.806 126.053 105.2C126.195 110.069 126.028 114.95 126.304 119.812C126.31 120.006 126.259 120.213 126.31 120.394C126.393 120.669 126.547 120.919 126.669 121.175C126.894 121.069 127.157 121.006 127.324 120.844C128.331 119.831 129.3 118.787 130.295 117.769C131.347 116.675 132.393 115.562 133.465 114.481C133.939 114.006 134.498 113.613 134.998 113.169C136.012 112.262 137.039 111.356 138.02 110.419C139.734 108.762 141.53 107.213 143.41 105.731C144.764 104.656 146.061 103.525 147.402 102.438C148.781 101.319 150.193 100.231 151.585 99.125C152.683 98.2563 153.728 97.325 154.877 96.525C157.431 94.7438 159.863 92.7875 162.609 91.275C164.637 90.1563 166.568 88.8813 168.615 87.8C170.322 86.8875 171.977 85.9063 173.736 85.075C175.564 84.2063 177.297 83.1375 179.119 82.2563C182.706 80.525 186.319 78.8688 189.925 77.1813C190.753 76.8 191.561 76.3563 192.421 76.025C194.218 75.325 196.066 74.7375 197.849 74.0063C200.512 72.9 203.265 72.0313 206.011 71.15C206.833 70.85 207.693 70.6 208.751 70.3375ZM109.03 129.344C109.428 129.344 109.941 129.5 110.204 129.312C110.75 128.938 111.038 129.312 111.385 129.519C112.161 129.95 112.809 130.6 113.727 130.819C113.9 130.863 114.08 130.975 114.202 131.094C115.055 131.913 116.159 132.256 117.23 132.656C119.354 133.444 121.6 133.75 123.833 133.988C125.245 134.131 126.714 134.2 128.132 133.825C128.543 133.712 128.947 133.519 129.371 133.444C130.892 133.181 132.22 132.456 133.51 131.7C134.459 131.144 135.274 130.369 136.172 129.731C136.59 129.438 137.045 129.175 137.616 129.137C138.662 129.062 139.702 128.894 140.741 128.769C141.242 128.7 141.755 128.662 142.249 128.562C143.231 128.388 144.206 128.156 145.194 127.994C146.535 127.775 147.883 127.581 149.237 127.406C150.809 127.194 152.394 127.006 153.966 126.825C155.301 126.675 156.648 126.494 157.989 126.45C159.741 126.394 161.473 126.238 163.212 126.056C164.143 125.956 165.086 125.956 166.023 125.881C167.948 125.738 169.886 125.806 171.823 125.675C175.013 125.463 178.214 125.762 181.41 125.488C184.291 125.25 187.198 125.431 190.105 125.306C194.282 125.119 198.472 125.219 202.662 125.275C206.82 125.331 210.984 125.056 215.149 125.444C216.971 125.613 218.819 125.331 220.648 125.619C221.726 125.787 222.849 125.681 223.952 125.806C225.255 125.95 226.57 126.013 227.873 126.213C229.169 126.419 230.485 126.575 231.787 126.6C233.802 126.644 235.804 126.762 237.806 126.988C238.788 127.094 239.782 127.1 240.738 127.388C240.976 127.463 241.2 127.406 241.149 127.062C241.072 126.6 240.969 126.144 240.957 125.681C240.925 124.644 240.925 123.606 240.957 122.569C240.976 121.994 240.841 121.525 240.418 121.125C240.084 120.806 240.116 120.475 240.565 120.213C240.918 120.013 240.944 119.763 240.95 119.431C241.059 115.281 240.713 111.106 241.149 106.956C241.207 106.431 241.181 105.912 241.316 105.369C241.624 104.081 241.695 102.731 241.983 101.438C242.054 101.106 242.022 101 241.784 100.913C241.528 100.819 241.245 100.75 240.969 100.713C239.93 100.575 238.89 100.45 237.845 100.319C236.157 100.119 234.482 99.8563 232.801 99.7563C231.396 99.6688 229.991 99.5 228.579 99.3688C226.955 99.2125 225.313 99.1438 223.683 99.1688C221.148 99.2063 218.614 98.9438 216.086 99.3375C214.988 99.5125 213.878 99.6125 212.762 99.7313C211.491 99.8688 210.214 99.9938 208.937 100.125C208.27 100.188 207.596 100.231 206.935 100.338C205.947 100.494 204.972 100.731 203.984 100.9C203.041 101.056 202.059 101.05 201.167 101.325C200.166 101.638 199.126 101.663 198.119 101.863C197.156 102.056 196.162 102.106 195.199 102.275C193.935 102.5 192.69 102.788 191.439 103.05C190.669 103.2 189.886 103.3 189.136 103.513C188.667 103.65 188.289 103.763 187.904 103.369C187.814 103.275 187.596 103.225 187.467 103.256C186.864 103.4 186.274 103.588 185.683 103.75C183.957 104.231 182.238 104.725 180.512 105.188C178.394 105.756 176.264 106.3 174.14 106.85C172.76 107.2 171.374 107.55 170.008 107.919C168.397 108.356 166.799 108.819 165.201 109.281C163.86 109.669 162.539 110.056 161.21 110.45C158.579 111.219 155.936 111.963 153.318 112.775C150.437 113.662 147.562 114.544 144.713 115.537C142.371 116.35 140.061 117.269 137.777 118.219C135.248 119.275 132.855 120.6 130.507 121.994C129.814 122.406 129.088 122.769 128.453 123.25C127.741 123.788 126.727 123.113 126.13 123.894C125.566 123.506 124.828 123.863 124.237 123.406C123.615 122.912 122.903 122.5 122.178 122.162C121.35 121.775 120.452 121.538 119.611 121.162C118.212 120.556 116.833 119.888 115.434 119.256C113.252 118.281 111.07 117.319 108.882 116.369C107.727 115.869 106.572 115.394 105.405 114.944C104.057 114.425 102.697 113.956 101.349 113.469C99.3023 112.725 97.2682 111.956 95.2148 111.244C93.2385 110.562 91.2558 109.925 89.2602 109.294C87.1491 108.631 85.0444 107.925 82.9013 107.363C80.8928 106.838 78.8973 106.287 76.8824 105.819C76.2857 105.681 75.5221 105.156 74.9253 105.963C74.874 106.025 74.6687 105.994 74.5468 105.981C73.8538 105.9 73.1543 105.844 72.4678 105.713C71.024 105.438 69.5995 105.1 68.1622 104.819C67.2959 104.65 66.4168 104.562 65.5442 104.406C64.1774 104.169 62.8299 103.912 61.476 103.644C60.5841 103.475 59.705 103.256 58.8131 103.113C57.8121 102.944 56.8111 102.806 55.8037 102.675C55.1043 102.588 54.3856 102.6 53.6926 102.469C52.621 102.256 51.5558 102.075 50.465 102.088C50.3367 102.088 50.1955 102.113 50.0736 102.088C48.9763 101.85 47.8663 101.688 46.7498 101.706C46.4867 101.706 46.1979 101.769 45.9541 101.694C44.6708 101.288 43.3104 101.706 42.0335 101.319C38.0423 101.438 34.0383 101.113 30.0472 101.494C28.1607 101.669 26.2485 101.363 24.3492 101.688C23.4573 101.838 22.5461 101.775 21.6349 101.85C19.9281 101.988 18.2213 102.031 16.5273 102.275C15.353 102.444 14.1595 102.469 13.0045 102.688C11.3298 103.006 9.67426 103.45 8.01234 103.838C7.24234 104.012 7.22309 104.006 7.22951 104.7C7.25517 106.194 7.24875 107.694 7.39634 109.2C7.62734 111.656 7.25517 114.144 7.60167 116.619C7.79417 117.969 7.65301 119.344 7.77492 120.725C7.94175 122.544 7.94817 124.388 8.20484 126.206C8.35242 127.269 8.38451 128.356 8.40376 129.438C8.41017 129.875 8.56417 130 8.96201 129.938C9.12242 129.913 9.27001 129.869 9.41759 129.838C10.5469 129.613 11.6763 129.356 12.8248 129.169C13.8194 129 14.8397 128.938 15.8471 128.769C17.2074 128.544 18.5421 128.213 19.9024 128.013C21.513 127.769 23.13 127.6 24.7406 127.425C26.0753 127.275 27.4163 127.094 28.7638 127.044C30.3103 126.988 31.8438 126.819 33.3774 126.656C34.4747 126.544 35.5848 126.569 36.6884 126.481C39.0433 126.281 41.4111 126.512 43.7853 126.287C46.4674 126.037 49.1753 126.3 51.8767 126.1C55.4572 125.838 59.0569 126.144 62.6631 125.919C65.0822 125.762 67.5205 125.725 69.9588 126.037C71.5438 126.238 73.1543 126.044 74.7713 126.213C76.5038 126.394 78.2492 126.406 79.9881 126.631C81.111 126.775 82.2596 126.775 83.3953 126.844C83.5237 126.85 83.6648 126.819 83.7932 126.85C84.9546 127.1 86.1224 127.25 87.3095 127.238C87.4763 127.238 87.6881 127.175 87.8036 127.244C88.2592 127.544 88.7533 127.381 89.2281 127.431C89.6965 127.488 90.1649 127.581 90.6333 127.613C91.7049 127.694 92.7893 127.656 93.8353 127.85C94.5411 127.975 95.279 127.863 95.9399 128.05C96.4918 128.206 97.0243 128.156 97.5633 128.213C98.128 128.269 98.6991 128.356 99.2766 128.406C100.207 128.488 101.157 128.469 102.081 128.625C103.255 128.806 104.429 128.894 105.603 129.025C106.572 129.131 107.541 129.175 108.51 129.194C108.619 129.163 108.728 129.281 109.03 129.344ZM124.289 65.3688C124.289 65.2125 124.327 65.0313 124.282 64.8875C123.917 63.7063 123.544 62.5313 123.159 61.3563C122.101 58.1563 121.023 54.9625 119.701 51.85C118.758 49.6063 117.904 47.3188 116.865 45.1125C115.921 43.0938 114.811 41.1313 113.708 39.1875C112.559 37.175 111.269 35.25 110.146 33.225C108.606 30.4625 106.746 27.9063 104.962 25.3063C103.845 23.6875 102.581 22.1688 101.381 20.6188C99.9054 18.7188 98.436 16.8 96.9345 14.925C96.0041 13.7625 95.0159 12.6438 94.047 11.5125C93.0203 10.3 91.9873 9.1 90.9478 7.89375C90.8002 7.725 90.6013 7.5875 90.4601 7.4125C89.1832 5.74375 87.5726 4.41875 85.9107 3.15C85.5642 2.8875 85.4038 2.80625 85.3973 3.3375C85.3973 3.475 85.2305 3.6 85.2177 3.75C84.9867 5.29375 84.1782 6.6375 83.5943 8.05625C83.1708 9.0875 82.5804 10.05 82.0093 11.0188C80.9634 12.8063 79.9303 14.6125 78.7753 16.3313C76.9209 19.1063 75.1307 21.9125 73.0453 24.5313C71.8838 25.9938 70.793 27.525 69.6123 28.9813C68.56 30.2875 67.3793 31.5125 66.327 32.8188C65.3902 33.975 64.5047 35.1813 63.6769 36.4125C62.4706 38.2188 61.3798 40.0938 60.1734 41.9063C58.6655 44.1688 57.2795 46.5 56.0347 48.9063C54.9695 50.9688 53.9942 53.075 52.9996 55.1688C52.9226 55.325 52.9547 55.5125 52.9483 55.6938C53.1279 55.675 53.314 55.6875 53.4873 55.65C54.2444 55.4938 55.008 55.3375 55.7716 55.1563C56.6699 54.9375 57.5811 54.8563 58.4923 54.7438C59.628 54.6 60.7638 54.375 61.9188 54.3875C62.9262 54.4063 63.9272 54.5 64.9282 54.575C65.6019 54.6188 66.2757 54.6875 66.943 54.775C67.3729 54.8313 67.8093 54.9188 68.2263 55.0313C69.8048 55.45 71.3962 55.8313 72.8784 56.525C74.489 57.2688 76.1381 57.9625 77.6781 58.8438C79.0833 59.6438 80.4244 60.5625 81.7398 61.5375C83.575 62.9063 85.423 64.2625 87.0721 65.8438C88.9458 67.6438 90.8194 69.4375 92.4493 71.45C93.5465 72.8125 94.7593 74.0813 95.8886 75.4188C96.9923 76.7188 98.051 78.0563 99.1354 79.3563C99.7899 80.1375 100.47 80.8875 101.099 81.675C102.318 83.225 103.499 84.7938 104.705 86.35C105.963 87.9813 107.31 89.5625 108.491 91.2438C110.429 94.0125 112.296 96.8313 114.112 99.675C115.459 101.775 116.621 103.988 117.962 106.094C119.483 108.45 120.798 110.906 122.114 113.369C122.98 115 124.058 116.525 124.52 118.338C124.545 118.444 124.699 118.525 124.789 118.613C124.828 118.5 124.898 118.394 124.898 118.281C124.802 115.65 125.014 113.019 124.744 110.375C124.501 107.981 124.841 105.563 124.52 103.15C124.366 101.963 124.52 100.744 124.347 99.5313C124.116 97.8625 124.122 96.15 124.116 94.4563C124.09 89.9125 124.083 85.375 124.116 80.825C124.148 75.95 124.237 71.0813 124.314 66.2C124.295 65.975 124.353 65.725 124.289 65.3688ZM64.8576 32.4688C64.9474 32.3188 65.0244 32.1375 65.1399 32C66.5388 30.3625 67.9825 28.75 69.3493 27.0813C70.2861 25.9563 71.1459 24.7625 72.0314 23.5938C72.7758 22.6063 73.4816 21.5813 74.2323 20.5938C74.6687 20.0188 74.6623 19.875 74.0013 19.525C73.873 19.45 73.7318 19.3875 73.5907 19.3313C71.9993 18.6125 70.408 17.9063 68.8167 17.1875C67.4243 16.5563 66.0254 15.9313 64.6266 15.3125C63.9272 14.9938 63.2791 14.9938 62.6438 15.525C62.2268 15.8813 61.6878 16.1 61.2386 16.4125C59.9232 17.325 58.6142 18.2438 57.3373 19.1938C56.2143 20.0313 55.2005 21.0063 54.0455 21.7875C51.7098 23.3625 49.6437 25.2375 47.5198 27.05C45.5627 28.725 43.7403 30.5563 41.8795 32.3313C41.2314 32.95 40.686 33.6875 40.0379 34.3063C37.8242 36.4313 35.5719 38.5188 33.3646 40.65C32.4791 41.5063 31.6642 42.4313 30.8172 43.3188C29.8483 44.325 28.8922 45.3313 27.9233 46.3375C26.5629 47.7375 25.1898 49.125 23.8423 50.525C23.0081 51.3875 22.1739 52.2438 21.3718 53.1313C20.0693 54.575 18.7667 56.0313 17.4962 57.5063C16.662 58.4625 15.969 59.5188 15.4108 60.6438C14.9103 61.6438 14.429 62.65 13.9734 63.6625C13.6847 64.325 13.4408 65.0063 13.2291 65.6938C13.1778 65.8438 12.9981 66.2313 13.4922 66.2563C14.8525 66.3188 16.1936 66.5813 17.5283 66.8313C18.8693 67.0813 20.2361 67.15 21.5643 67.45C22.9311 67.7563 24.3428 67.7125 25.7095 68.0063C26.1138 68.0938 26.5437 68.075 26.9672 68.1C27.4099 68.125 27.9938 68.3375 28.2762 68.1313C28.8665 67.7125 28.905 68.5375 29.3734 68.4375C29.906 68.3375 30.5092 68.5125 31.0738 68.6188C31.9593 68.7875 32.8384 69.0188 33.7175 69.175C34.9559 69.4 36.22 69.525 37.4456 69.7938C38.684 70.05 39.8839 70.5188 41.1288 70.7188C43.2334 71.05 45.229 71.7438 47.2888 72.2063C49.1303 72.625 50.9398 73.1688 52.7493 73.6625C54.7385 74.2188 56.7405 74.75 58.7104 75.3625C61.8482 76.3438 64.9795 77.3125 68.0467 78.5063C70.0743 79.2938 72.1084 80.0688 74.0655 81.0063C76.8054 82.3188 79.5133 83.7 82.2147 85.0563C83.421 85.6625 84.6338 86.2563 85.8208 86.9125C88.2784 88.2563 90.7168 89.6188 93.1615 91C94.3101 91.6563 95.4587 92.3313 96.5752 93.0563C98.5002 94.3125 100.425 95.6 102.312 96.9125C103.3 97.5938 104.243 98.3563 105.167 99.1125C106.239 99.9813 107.265 100.9 108.318 101.794C109.896 103.144 111.539 104.45 113.066 105.869C115.536 108.169 117.904 110.588 120.131 113.119C120.214 113.219 120.362 113.256 120.477 113.325C120.471 113.169 120.529 112.969 120.445 112.869C119.836 112.162 119.496 111.312 119.034 110.519C117.898 108.569 116.704 106.656 115.524 104.738C114.709 103.412 113.887 102.081 113.06 100.775C112.104 99.2813 111.064 97.8313 110.146 96.3063C108.78 94.0313 107.15 91.925 105.584 89.7875C104.718 88.6125 103.852 87.425 102.953 86.275C101.907 84.9375 100.817 83.625 99.7386 82.3188C99.0456 81.4938 98.3205 80.6938 97.6275 79.8625C96.6329 78.65 95.664 77.4125 94.6566 76.2C93.9508 75.35 93.2064 74.5188 92.4749 73.675C91.3263 72.35 90.2163 71 89.0099 69.725C87.7458 68.4 86.3855 67.15 85.0765 65.8625C84.9097 65.7 84.7621 65.525 84.5824 65.3875C83.2221 64.375 81.8746 63.325 80.4758 62.3688C78.9165 61.3 77.3573 60.2 75.6953 59.3063C74.1104 58.4563 72.41 57.7938 70.7288 57.1563C69.7535 56.7875 68.7076 56.5813 67.6745 56.3688C66.4746 56.125 65.2554 55.8438 64.0427 55.8063C62.3102 55.75 60.5713 55.8563 58.8452 55.9938C57.8249 56.0688 56.8111 56.3375 55.8037 56.5625C54.7706 56.7938 53.7632 57.0875 52.7429 57.325C52.313 57.4313 51.8703 57.4875 51.4339 57.5188C51.0746 57.5438 50.8949 57.325 50.927 56.9813C50.9463 56.7688 50.9591 56.5375 51.0425 56.3438C51.9023 54.3875 52.7493 52.4313 53.6605 50.4938C54.084 49.5563 54.623 48.6688 55.1171 47.7688C55.9192 46.3063 56.6828 44.825 57.5426 43.4C58.2677 42.1875 59.166 41.075 59.8911 39.8625C61.3669 37.325 63.016 34.9188 64.8576 32.4688ZM122.794 120.194C123.275 120.431 123.763 120.681 124.237 120.925C123.994 120.394 123.833 119.788 123.48 119.331C122.152 117.581 120.798 115.85 119.399 114.169C118.591 113.2 117.699 112.3 116.794 111.425C114.304 109.013 111.776 106.638 109.261 104.263C108.703 103.731 108.119 103.231 107.516 102.75C106.13 101.638 104.744 100.525 103.332 99.45C102.087 98.4875 100.842 97.525 99.5333 96.6438C97.7623 95.4438 95.9528 94.2875 94.124 93.1938C91.9552 91.8938 89.7414 90.6688 87.5405 89.4375C86.5523 88.8813 85.5193 88.4063 84.5183 87.875C82.2083 86.6563 79.9303 85.3625 77.6075 84.1875C75.5606 83.1563 73.4688 82.2063 71.3641 81.2813C69.7407 80.575 68.0916 79.9063 66.4168 79.3188C64.1004 78.5063 61.7583 77.7625 59.4227 77.0063C57.9276 76.525 56.4389 76.0313 54.931 75.6125C53.083 75.1 51.2093 74.6625 49.3549 74.1813C47.9433 73.8188 46.5508 73.4313 45.1392 73.075C43.4259 72.65 41.6998 72.2313 39.9802 71.8438C38.2477 71.4563 36.5088 71.1063 34.7634 70.7313C33.8843 70.55 32.9988 70.35 32.1005 70.1938C31.1059 70.025 30.0985 69.9063 29.0911 69.7625C28.6804 69.7063 28.3339 69.8063 28.0644 70.1563C27.7051 70.6063 27.3458 71.05 26.9287 71.45C25.0871 73.2688 23.2198 75.0813 21.3654 76.8938C21.1729 77.0813 20.9868 77.2563 20.8072 77.45C20.1206 78.175 19.4661 78.9375 18.7538 79.6313C17.7015 80.6438 16.5978 81.6125 15.5327 82.6063C15.4621 82.6688 15.4557 82.8188 15.4557 82.9313C15.4557 82.9563 15.6161 82.9875 15.7059 83.0063C16.6171 83.1375 17.5411 83.2125 18.4266 83.4063C19.7677 83.6875 21.0767 84.0875 22.4049 84.3563C24.4583 84.7875 26.5244 85.125 28.5906 85.5438C30.3616 85.9063 32.1198 86.3 33.8779 86.7125C35.296 87.0375 36.7141 87.3875 38.1193 87.7563C39.9802 88.2375 41.8218 88.75 43.6698 89.2375C45.4921 89.7313 47.3144 90.2125 49.1303 90.7125C50.3495 91.05 51.5558 91.4188 52.7686 91.7688C54.546 92.2688 56.3491 92.7313 58.1201 93.2625C59.5638 93.7 60.9755 94.225 62.4 94.6875C64.9731 95.525 67.5462 96.3313 70.1193 97.1875C71.8325 97.7563 73.5137 98.425 75.2462 98.9625C77.9412 99.8125 80.5335 100.913 83.1643 101.938C84.3899 102.413 85.5898 102.969 86.809 103.45C88.9458 104.288 91.1082 105.075 93.2321 105.931C95.1058 106.681 96.9602 107.475 98.821 108.269C101.163 109.256 103.505 110.238 105.834 111.256C106.932 111.731 107.952 112.394 109.075 112.781C111.013 113.444 112.72 114.538 114.523 115.45C116.364 116.375 118.135 117.438 119.925 118.463C120.843 118.975 121.767 119.537 122.794 120.194ZM150.411 108.025C149.141 108.869 147.864 109.706 146.612 110.575C145.194 111.556 143.802 112.575 142.397 113.575C141.325 114.338 140.253 115.1 139.188 115.875C139.105 115.938 139.092 116.094 139.041 116.2C139.131 116.175 139.233 116.15 139.323 116.119C141.761 115.206 144.18 114.244 146.638 113.388C148.698 112.669 150.79 112.069 152.888 111.431C155.268 110.706 157.662 110 160.055 109.287C161.345 108.9 162.641 108.481 163.944 108.131C165.792 107.631 167.665 107.194 169.52 106.694C171.278 106.219 173.017 105.681 174.775 105.206C177.278 104.538 179.806 103.913 182.321 103.25C183.784 102.869 185.247 102.469 186.704 102.081C188.199 101.688 189.694 101.275 191.202 100.925C192.447 100.625 193.724 100.469 194.949 100.119C197.137 99.5 199.364 99.0813 201.571 98.5688C203.156 98.2063 204.76 97.9375 206.339 97.575C207.988 97.1938 209.663 96.975 211.318 96.6438C212.287 96.4563 213.275 96.4063 214.238 96.2375C215.598 96 216.939 95.6938 218.299 95.4688C219.705 95.2375 221.116 95.0625 222.534 94.8813C223.741 94.7313 224.953 94.5938 226.153 94.4938C227.45 94.4 228.765 94.2875 230.055 94.3125C232.455 94.3625 234.854 94.1313 237.254 94.4625C238.428 94.625 239.648 94.4938 240.841 94.4875C240.931 94.4875 241.027 94.4563 241.117 94.4313C241.046 94.3438 240.989 94.2375 240.918 94.1563C240.572 93.8125 240.167 93.5063 239.872 93.1188C238.653 91.5063 237.229 90.0813 235.65 88.8125C235.252 88.5 234.854 88.175 234.45 87.8688C233.603 87.2188 232.737 86.5813 231.896 85.9125C231.543 85.6313 231.28 85.2313 230.895 84.9938C230.716 84.8813 230.376 84.4625 230.093 84.9438C229.323 84.9438 228.515 84.7875 227.809 84.9875C226.724 85.2875 225.646 85.05 224.562 85.3C223.478 85.55 222.291 85.3813 221.174 85.5688C220.468 85.6875 219.769 85.6625 219.063 85.7375C217.645 85.8938 216.246 86.1375 214.828 86.3C213.423 86.4625 212.011 86.5625 210.606 86.6938C210.003 86.75 209.393 86.8 208.79 86.8938C207.641 87.075 206.499 87.2875 205.351 87.4688C204.375 87.6188 203.393 87.6938 202.431 87.8688C201.205 88.0938 199.993 88.375 198.773 88.6438C197.676 88.875 196.566 89.0875 195.482 89.35C194.128 89.675 192.78 90.0375 191.439 90.4C189.386 90.9563 187.313 91.4688 185.286 92.1063C180.685 93.5375 176.11 95.0125 171.625 96.7813C169.372 97.675 167.12 98.5625 164.938 99.5688C162.372 100.75 159.908 102.125 157.405 103.444C156.449 103.95 155.519 104.506 154.62 105.1C153.228 106.019 151.874 106.988 150.411 108.025ZM18.4972 96.2438C19.434 96.3063 20.3644 96.375 21.3077 96.4375C22.3151 96.5125 23.3097 96.475 24.3171 96.5813C25.9533 96.75 27.5896 96.8375 29.2323 96.9938C30.445 97.1063 31.6513 97.225 32.8513 97.3938C34.1859 97.5813 35.5334 97.6688 36.8745 97.8C37.5098 97.8625 38.1578 97.9 38.7867 98C39.9994 98.175 41.2122 98.4125 42.4378 98.5688C43.2334 98.675 44.0676 98.6188 44.8376 98.8063C45.4215 98.9438 46.0054 98.8438 46.5508 98.9875C47.8791 99.3438 49.2651 99.2625 50.5998 99.5375C51.3826 99.7 52.2039 99.675 53.006 99.7563C53.545 99.8125 54.0776 99.875 54.6166 99.9625C55.701 100.144 56.7854 100.35 57.8634 100.525C58.7682 100.675 59.6858 100.769 60.5841 100.931C61.8161 101.156 63.0288 101.438 64.248 101.694C65.0693 101.875 65.8907 102.056 66.712 102.225C68.021 102.506 69.3364 102.788 70.6454 103.05C71.7491 103.263 72.8784 103.412 73.9693 103.681C76.4012 104.288 78.8203 104.938 81.2329 105.594C83.5044 106.206 85.7631 106.819 88.0153 107.469C89.5489 107.912 91.0697 108.412 92.5904 108.9C94.7528 109.6 96.9217 110.288 99.052 111.05C100.9 111.713 102.684 112.55 104.538 113.162C107.079 114.006 109.473 115.175 111.917 116.219C113.445 116.875 114.888 117.681 116.383 118.406C116.653 118.531 116.974 118.575 117.282 118.631C117.34 118.638 117.417 118.556 117.494 118.525C117.436 118.5 117.378 118.475 117.327 118.444C116.679 118.106 116.024 117.762 115.363 117.419C113.406 116.406 111.449 115.381 109.473 114.4C108.209 113.775 106.957 113.131 105.636 112.625C103.377 111.75 101.208 110.688 98.9622 109.769C97.3837 109.125 95.8308 108.381 94.2395 107.744C92.3081 106.969 90.3446 106.269 88.4068 105.506C87.2389 105.044 86.0968 104.519 84.9289 104.069C82.4457 103.113 79.956 102.169 77.4471 101.244C75.3232 100.463 73.1864 99.7 71.0304 98.975C67.1676 97.6688 63.2919 96.3813 59.4034 95.125C57.4463 94.4875 55.4636 93.9063 53.4873 93.3313C51.8574 92.8563 50.2212 92.4188 48.5785 91.9625C46.9487 91.5063 45.3124 91.025 43.6698 90.6063C41.9886 90.1813 40.2753 89.8688 38.6006 89.3938C35.9377 88.6438 33.2619 87.9563 30.5413 87.475C28.7061 87.1438 26.8838 86.7188 25.0486 86.3125C23.3867 85.9438 21.7312 85.525 20.0628 85.1625C19.7933 85.1063 19.3378 85.1563 19.203 85.3313C18.0993 86.725 17.0791 88.1688 15.9883 89.5688C14.8782 91.0125 13.7103 92.4188 12.5746 93.8375C12.1768 94.325 11.7597 94.7938 11.4132 95.3188C11.195 95.6375 10.5277 95.9125 10.8485 96.2938C11.0474 96.5313 11.7276 96.4438 12.1768 96.4313C14.2237 96.3813 16.2578 96.3063 18.4972 96.2438ZM41.8218 130.512C41.9308 130.45 42.0335 130.338 42.1362 130.331C43.7468 130.194 45.3445 130.05 46.9551 129.944C47.9625 129.881 48.9571 129.956 49.9645 129.762C50.9142 129.588 51.8959 129.744 52.8777 129.581C53.9878 129.4 55.1428 129.538 56.2785 129.369C57.4014 129.2 58.5372 129.381 59.6858 129.188C60.8985 128.981 62.1498 129.175 63.3882 128.981C64.6009 128.794 65.8522 128.925 67.0906 128.806C68.9771 128.625 70.8828 128.662 72.7886 128.606C76.7733 128.488 80.7645 128.575 84.7557 128.562C85.0252 128.562 85.3011 128.494 85.577 128.463C85.2818 128.363 84.9931 128.269 84.6979 128.188C84.576 128.156 84.4348 128.188 84.3001 128.181C83.4916 128.131 82.6959 128.106 81.8874 128.031C80.2191 127.881 78.5379 127.794 76.8696 127.606C76.0033 127.513 75.1307 127.544 74.258 127.444C72.7373 127.275 71.1908 127.263 69.6573 127.25C66.1281 127.231 62.6053 127.1 59.0698 127.375C55.7203 127.631 52.3451 127.275 48.9828 127.575C46.2685 127.819 43.5286 127.556 40.7951 127.75C37.9333 127.944 35.0458 127.819 32.1839 128.181C30.9968 128.331 29.7841 128.325 28.5778 128.388C28.5136 128.388 28.4494 128.381 28.3853 128.388C27.442 128.519 26.5052 128.669 25.5555 128.769C24.6893 128.863 23.8166 128.894 22.9503 128.969C22.3472 129.019 21.7376 129.075 21.1344 129.163C19.9538 129.338 18.7731 129.55 17.5988 129.744C16.6877 129.887 15.7829 129.994 14.8782 130.15C13.9542 130.312 13.043 130.531 12.119 130.713C11.195 130.9 10.2646 131.031 9.35984 131.256C7.87117 131.625 7.01776 131.012 7.01134 129.519C7.01134 129 7.01775 128.475 6.99851 127.963C6.99209 127.844 6.88301 127.719 6.81884 127.606C6.73542 127.713 6.64559 127.819 6.58142 127.938C6.31834 128.412 6.06809 128.894 5.81142 129.381C4.91309 131.062 4.02117 132.744 3.11642 134.419C2.9175 134.788 3.00734 135.038 3.43084 135C4.38051 134.9 5.31092 134.744 6.26059 134.619C7.42842 134.475 8.60909 134.394 9.77692 134.219C11.3041 133.994 12.812 133.669 14.3392 133.463C15.6097 133.281 16.8866 133.194 18.1571 133.056C18.7603 132.994 19.3891 133 19.9602 132.85C20.897 132.594 21.8531 132.631 22.8028 132.494C23.6883 132.356 24.6058 132.381 25.5042 132.275C26.9223 132.106 28.3275 131.875 29.7456 131.706C30.676 131.6 31.6128 131.569 32.5497 131.506C32.6459 131.494 32.755 131.519 32.8384 131.488C33.6213 131.194 34.4618 131.25 35.2703 131.125C36.1238 131.006 37.0157 131.056 37.8755 130.9C39.1332 130.669 40.3716 130.5 41.8218 130.512ZM16.1038 100.913C17.3358 100.675 18.5934 100.8 19.8318 100.55C20.7687 100.356 21.7504 100.55 22.745 100.369C23.9128 100.15 25.132 100.181 26.3383 100.144C29.3991 100.031 32.4598 100.294 35.527 99.975C37.1312 99.8 38.7738 99.925 40.4037 99.95C41.3469 99.9625 42.2773 100.075 43.2078 100.125C43.3104 100.131 43.4067 100.05 43.5093 100.013C43.4131 99.9875 43.3361 99.9563 43.2334 99.9375C42.3287 99.8125 41.4175 99.6125 40.5128 99.5688C39.3257 99.5125 38.1643 99.3625 36.99 99.175C35.4885 98.9438 33.9742 98.7625 32.4598 98.5875C31.1508 98.4313 29.8483 98.2625 28.5393 98.2063C27.0249 98.1438 25.5298 97.975 24.0219 97.825C22.6616 97.675 21.2884 97.6375 19.9217 97.6188C17.5218 97.5938 15.1284 97.6375 12.7286 97.7563C11.5672 97.825 10.6753 97.95 10.0657 99.0125C9.42401 100.125 8.67326 101.169 7.97384 102.25C7.94175 102.306 7.92892 102.388 7.91609 102.45C7.98026 102.463 8.06367 102.494 8.10217 102.469C9.01334 101.931 10.0849 101.95 11.0731 101.725C12.6516 101.35 14.2814 101.169 16.1038 100.913ZM221.707 97.8C223.837 97.8625 225.967 97.925 228.104 97.9938C228.2 97.9938 228.309 97.9688 228.399 97.9938C229.522 98.3125 230.684 98.2188 231.819 98.3688C232.718 98.4813 233.629 98.475 234.527 98.5875C235.81 98.75 237.081 99.0313 238.371 99.1438C239.385 99.2313 240.398 99.3063 241.393 99.5438C241.502 99.5688 241.624 99.4875 241.752 99.4563C241.701 99.3438 241.675 99.2125 241.605 99.125C241.431 98.9313 241.2 98.7813 241.046 98.5688C240.475 97.775 239.93 96.95 239.34 96.15C239.243 96.0125 239.038 95.8813 238.871 95.8625C238.037 95.775 237.196 95.6625 236.369 95.675C233.237 95.7063 230.106 95.5188 226.981 95.85C226.019 95.9563 225.024 95.9 224.081 96.0813C223.503 96.1938 222.932 96.1813 222.361 96.25C221.206 96.4125 220.07 96.6438 218.922 96.825C217.882 96.975 216.836 97.0625 215.797 97.225C214.655 97.3938 213.506 97.6188 212.358 97.8C211.825 97.8875 211.26 97.8563 210.753 98.0063C209.13 98.5 207.423 98.5563 205.78 98.9625C205.023 99.15 204.247 99.2688 203.49 99.4375C203.336 99.475 203.214 99.5688 203.073 99.6438C203.214 99.6813 203.361 99.7563 203.496 99.7438C203.965 99.7 204.452 99.675 204.908 99.5438C206.005 99.2375 207.115 99.0563 208.244 98.9625C208.88 98.9188 209.515 98.8438 210.15 98.7563C210.901 98.65 211.632 98.4875 212.383 98.3938C213.121 98.3 213.859 98.3063 214.597 98.1875C215.9 97.9688 217.202 97.825 218.518 97.8063C219.519 97.7875 220.507 97.8 221.707 97.8ZM228.887 127.594C228.22 127.525 227.552 127.456 226.872 127.4C225.942 127.325 224.966 127.388 224.068 127.175C222.733 126.844 221.373 126.988 220.038 126.869C217.292 126.619 214.514 126.681 211.748 126.619C211.62 126.619 211.434 126.675 211.363 126.606C210.85 126.213 210.272 126.519 209.74 126.431C209.65 126.419 209.541 126.531 209.438 126.575C209.547 126.656 209.65 126.794 209.752 126.8C210.664 126.844 211.568 126.925 212.467 126.963C214.546 127.062 216.618 127.156 218.684 127.369C219.955 127.494 221.232 127.575 222.502 127.769C223.766 127.963 225.05 128.044 226.32 128.169C226.891 128.225 227.469 128.275 228.04 128.375C229.086 128.55 230.125 128.794 231.178 128.944C232.416 129.113 233.68 129.137 234.899 129.381C235.477 129.494 236.061 129.438 236.613 129.556C238.05 129.863 239.506 129.956 240.957 130.119C241.188 130.144 241.431 130.088 241.65 130.137C242.85 130.387 244.049 130.531 245.281 130.512C245.756 130.506 245.403 130.331 245.339 130.206C245.05 129.675 244.742 129.156 244.486 128.606C243.889 127.325 242.978 126.181 242.708 124.75C242.689 124.65 242.529 124.581 242.432 124.494C242.4 124.581 242.355 124.662 242.355 124.75C242.343 124.975 242.336 125.206 242.355 125.431C242.413 126.181 242.503 126.938 242.542 127.688C242.567 128.081 242.086 128.75 241.752 128.756C240.758 128.775 239.68 128.969 238.807 128.644C237.479 128.156 236.125 128.238 234.79 128.019C233.642 127.831 232.455 128.075 231.287 127.806C230.574 127.65 229.824 127.656 228.887 127.594ZM155.698 128.375C155.936 128.306 156.167 128.213 156.417 128.188C157.219 128.106 158.015 128.031 158.823 127.994C159.767 127.944 160.691 127.963 161.634 127.831C162.77 127.681 163.931 127.806 165.067 127.625C165.676 127.525 166.331 127.662 166.953 127.594C167.499 127.525 168.063 127.488 168.602 127.444C170.701 127.3 172.792 127.275 174.891 127.219C175.385 127.206 175.885 127.219 176.379 127.213C176.437 127.213 176.527 127.094 176.527 127.025C176.527 126.963 176.45 126.85 176.379 126.844C176.18 126.819 175.988 126.825 175.789 126.838C174.056 126.9 172.324 126.956 170.591 127.037C169.321 127.094 168.063 126.969 166.78 127.188C165.676 127.381 164.515 127.188 163.386 127.406C162.635 127.55 161.846 127.519 161.076 127.569C159.234 127.688 157.399 127.794 155.57 128C154.197 128.156 152.824 128.263 151.451 128.406C151.361 128.412 151.29 128.531 151.207 128.606C151.297 128.669 151.406 128.794 151.476 128.775C152.804 128.494 154.152 128.363 155.698 128.375Z" fill="white"/>
</g>
</svg>
