<svg width="59.16" height=" 57.3" viewBox="0 0 60 59" fill="none"
                            xmlns="http://www.w3.org/2000/svg">
                            <path
                                d="M21.3001 0.853273C19.3263 0.855445 17.5223 1.93524 16.6378 3.64394L14.5901 7.59977L8.70931 7.60624C3.90327 7.61153 0.0112127 11.3884 0.0161768 16.0422L0.0449415 43.0088C0.0499056 47.6625 3.95001 51.4309 8.75605 51.4256L26.491 51.4061C25.9262 50.3389 25.4651 49.2117 25.1206 48.0371L8.75246 48.0551C5.86882 48.0582 3.52877 45.7971 3.52579 43.005L3.49703 16.0384C3.49405 13.2461 5.82927 10.98 8.7129 10.9768L15.6669 10.9692C16.3249 10.9684 16.9262 10.6085 17.221 10.0389L19.7496 5.15407C20.0445 4.58449 20.6458 4.22456 21.3037 4.22384L34.4064 4.20942C35.0657 4.2087 35.6686 4.56875 35.964 5.13944L38.4863 10.0123C38.7817 10.583 39.3846 10.9431 40.0439 10.9423L47.0021 10.9347C49.886 10.9315 52.2258 13.1925 52.2288 15.9848L52.2399 26.4427C53.4864 27.0594 54.6536 27.8044 55.7231 28.6597L55.7096 15.981C55.7046 11.3272 51.8049 7.55883 46.9985 7.56412L41.1162 7.57059L39.0761 3.62893C38.1898 1.91685 36.3806 0.836681 34.4028 0.838857L21.3001 0.853273Z"
                                fill="#212121" />
                            <path
                                d="M27.8443 14.3283C34.3749 14.3211 39.8598 18.6687 41.3701 24.5405C40.1969 24.6687 39.0558 24.8996 37.9565 25.2236C36.7757 20.888 32.6959 17.6935 27.8479 17.6989C22.0806 17.7052 17.4102 22.2375 17.4161 27.822C17.4211 32.5165 20.729 36.4601 25.209 37.5941C24.8768 38.6592 24.6409 39.7647 24.511 40.9011C18.4438 39.4517 13.942 34.1496 13.9353 27.8258C13.9273 20.3798 20.1546 14.3368 27.8443 14.3283Z"
                                fill="#212121" />
                            <path
                                d="M59.2021 42.9437C59.211 51.3206 52.2054 58.1189 43.5544 58.1285C34.9038 58.138 27.8835 51.355 27.8746 42.9782C27.8656 34.6013 34.8715 27.8029 43.5221 27.7934C52.173 27.7839 59.1931 34.5668 59.2021 42.9437ZM45.2715 36.2179C45.2705 35.2873 44.4907 34.5334 43.5293 34.5345C42.5682 34.5356 41.7896 35.2911 41.7906 36.2217L41.796 41.2776L36.5748 41.2833C35.6137 41.2844 34.8351 42.0399 34.8361 42.9705C34.8371 43.9011 35.6173 44.6549 36.5784 44.6539L41.7996 44.6481L41.805 49.704C41.806 50.6346 42.5862 51.3884 43.5472 51.3873C44.5087 51.3863 45.2869 50.6308 45.2859 49.7001L45.2805 44.6443L50.5018 44.6385C51.4632 44.6375 52.2414 43.882 52.2404 42.9513C52.2394 42.0207 51.4596 41.2669 50.4982 41.268L45.2769 41.2737L45.2715 36.2179Z"
                                fill="#212121" />
                        </svg>